# xmcd
#
# Track frame offsets:
#	150
#	31864
#	55151
#	92809
#	106444
#	133119
#	168211
#	196263
#	218494
#	236648
#
# Disc length: 3538 seconds
#
# Revision: 1
# Processed by: cddbd v1.4PL0 Copyright (c) Steve Scherf et al.
# Submitted via: audiograbber 1.82.02
#
DISCID=800dd00a
DTITLE=Rory Gallagher - Marquee Club  New York City  30/03/1991
DYEAR=1991
DGENRE=blues
TTITLE0=Rory Gallagher - Continental Op
TTITLE1=Rory Gallagher - Moonchild
TTITLE2=Rory Gallagher - I Wonder Who
TTITLE3=Rory Gallagher - The Loop
TTITLE4=Rory Gallagher - Tattoo's Lady
TTITLE5=Rory Gallagher - Off The Handle
TTITLE6=Rory Gallagher - Ghost Blues
TTITLE7=Rory Gallagher - Goin Down To Eh's
TTITLE8=Rory Gallagher - Shin Kicker
TTITLE9=Rory Gallagher - A Million Miles Away
EXTD=
EXTT0=
EXTT1=
EXTT2=
EXTT3=
EXTT4=
EXTT5=
EXTT6=
EXTT7=
EXTT8=
EXTT9=
PLAYORDER=
